{"title":"The Dark Side of the Sun (1988) Brad Pitt_first leading role","uid":8091317,"size":866779483,"categoryP":"video","categoryS":"movies","magnet":"?xt=urn:btih:3f62419f00c4664cf6dc4a166babf7a93fe8a764&amp;dn=The+Dark+Side+of+the+Sun+%281988%29+Brad+Pitt_first+leading+role&amp;tr=udp%3A%2F%2Ftracker.openbittorrent.com%3A80&amp;tr=udp%3A%2F%2Fopen.demonii.com%3A1337&amp;tr=udp%3A%2F%2Ftracker.coppersurfer.tk%3A6969&amp;tr=udp%3A%2F%2Fexodus.desync.com%3A6969","seeders":6,"leechers":1,"uploader":"movieZ.freak","files":3,"time":1359729415,"description":"Brad Pitt, first leading film role.\n\nSource: DVD5\n &lt;a href=&quot;\nhttp://www.imdb.com/title/tt0118930/&quot; rel=&quot;nofollow&quot; target=&quot;_NEW&quot;&gt;\nhttp://www.imdb.com/title/tt0118930/&lt;/a&gt;\n\nCast: Brad Pitt, Guy Boyd, Cheryl Pollak, Milena Dravic, Gorica Popovic, Sonja Savic, Stole Arandjelovic\n\nDirector: Bozidar 'Bota' Nikolic \n\nMusic: Vojislav Kostic (as Voki Kostic), Kornelije Kovac (as Kornell Kovach)\n\nFilming locations: Kotor, Montenegro\n\nInfo:\n-------\nThe Dark Side of the Sun is a 1988 American - Yugoslavian drama film starring a young Brad Pitt about a young man in search for a cure for a dreaded skin disease.\nIt is directed by Bozidar Nikolic. The footage for the film was shot in 1988 but due to the outbreak of Croatian War of Independence (which started in 1991) it had to be abandoned and much footage was lost. The missing pieces were eventually recovered and it was released officially in 1997, by which time Brad Pitt was a major star.\n\nPlot:\n-------\nRick is a young American who suffers of a rare skin disease which prevents him of exposing himself to any kind of light. After having tried several cures without success, his father takes him to a village where they meet a healer, who is supposed to save him. But the treatment does not work and Rick decides to forget about his illness and enjoy life feeling the sun on his skin for the first time. In the short time he has left a young American actress enters his life.\n\n   General\n-----------\n\n      Format : AVI\n      Format/Info : Audio Video Interleave\n      File size : 800 MiB\n      Duration : 1h 36mn\n      Overall bit rate : 1 156 Kbps\n      Writing application : VirtualDubMod 1.5.10.3 | www.virtualdub-fr.org || (build 2550/release)\n      Writing library : VirtualDubMod build 2550/release\n\n   Video\n-------------\n\n      Format : MPEG-4 Visual\n      Format profile : Advanced Simple@L5\n      Format settings, BVOP : 1\n      Format settings, QPel : No\n      Format settings, GMC : No warppoints\n      Format settings, Matrix : Custom\n      Codec ID : XVID\n      Codec ID/Hint : XviD\n      Duration : 1h 36mn\n      Bit rate : 1 020 Kbps\n      Width : 576 pixels\n      Height : 432 pixels\n      Display aspect ratio : 4:3\n      Frame rate : 25.000 fps\n      Color space : YUV\n      Chroma subsampling : 4:2:0\n      Bit depth : 8 bits\n      Scan type : Progressive\n      Compression mode : Lossy\n      Bits/(Pixel*Frame) : 0.164\n      Stream size : 706 MiB (88%)\n      Writing library : XviD 64\n\n   Audio\n----------------\n\n      Format : MPEG Audio\n      Format version : Version 1\n      Format profile : Layer 3\n      Mode : Joint stereo\n      Mode extension : MS Stereo\n      Codec ID : 55\n      Codec ID/Hint : MP3\n      Duration : 1h 36mn\n      Bit rate mode : Constant\n      Bit rate : 128 Kbps\n      Channel(s) : 2 channels\n      Sampling rate : 48.0 KHz\n      Compression mode : Lossy\n      Stream size : 88.6 MiB (11%)\n      Alignment : Aligned on interleaves\n      Interleave, duration : 80 ms (2.00 video frames)\n      Interleave, preload duration : 504 ms\n      Writing library : LAME3.100\u0001Âª\n      Language : English\n\n\n ","torrent":{"xt":"urn:btih:3f62419f00c4664cf6dc4a166babf7a93fe8a764","amp;dn":"The+Dark+Side+of+the+Sun+%281988%29+Brad+Pitt_first+leading+role","amp;tr":["udp%3A%2F%2Ftracker.openbittorrent.com%3A80","udp%3A%2F%2Fopen.demonii.com%3A1337","udp%3A%2F%2Ftracker.coppersurfer.tk%3A6969","udp%3A%2F%2Fexodus.desync.com%3A6969"],"infoHash":"3f62419f00c4664cf6dc4a166babf7a93fe8a764","infoHashBuffer":{"type":"Buffer","data":[63,98,65,159,0,196,102,76,246,220,74,22,107,171,247,169,63,232,167,100]},"announce":[],"urlList":[]}}